<?xml version="1.0" standalone="no"?>
<!DOCTYPE svg PUBLIC "-//W3C//DTD SVG 20010904//EN"
 "http://www.w3.org/TR/2001/REC-SVG-20010904/DTD/svg10.dtd">
<svg version="1.0" xmlns="http://www.w3.org/2000/svg"
 width="700.000000pt" height="700.000000pt" viewBox="0 0 700.000000 700.000000"
 preserveAspectRatio="xMidYMid meet">
<metadata>
Created by potrace 1.14, written by Peter Selinger 2001-2017
</metadata>
<g transform="translate(0.000000,700.000000) scale(0.100000,-0.100000)"
fill="#000000" stroke="none">
<path d="M3160 6420 c-628 -41 -1213 -334 -1627 -815 -307 -356 -496 -787
-554 -1260 -14 -116 -13 -416 2 -536 11 -93 11 -94 -12 -109 -13 -8 -49 -39
-80 -68 -73 -68 -110 -148 -117 -248 -5 -81 8 -130 45 -175 27 -32 91 -69 119
-69 12 0 8 -9 -15 -36 -78 -88 -122 -194 -102 -243 13 -30 47 -51 86 -51 13 0
67 15 120 34 l96 33 10 -26 c5 -14 16 -42 24 -61 24 -59 24 -60 -36 -79 -31
-10 -73 -30 -92 -45 -50 -38 -87 -116 -87 -183 0 -106 48 -153 214 -209 114
-39 112 -37 118 -151 7 -124 23 -177 68 -224 56 -58 134 -72 245 -44 l59 16
55 -61 c146 -165 383 -283 676 -336 120 -22 467 -30 622 -15 286 29 610 100
918 203 99 33 186 61 194 62 8 0 20 -17 28 -42 8 -23 37 -66 63 -96 156 -169
424 -138 534 64 30 54 43 135 32 194 -8 43 -49 94 -90 111 l-30 13 60 30 c150
76 438 252 579 355 342 250 570 495 690 741 73 150 96 234 102 381 5 103 2
133 -17 208 -20 82 -20 90 -6 110 79 107 106 174 106 261 0 65 -14 114 -45
160 -14 20 -25 38 -25 40 0 2 16 7 36 11 46 8 84 46 84 82 0 72 -100 209 -195
270 l-43 27 5 57 c10 101 -58 276 -138 359 -87 89 -193 124 -362 119 l-108 -4
-22 55 c-13 30 -50 96 -84 145 -370 551 -928 912 -1573 1019 -85 14 -361 38
-400 34 -8 0 -67 -4 -130 -8z m459 -116 c636 -84 1214 -451 1569 -997 123
-188 124 -326 5 -496 -152 -219 -182 -245 -477 -414 -498 -286 -1083 -482
-1641 -549 -241 -29 -667 -10 -865 38 -265 65 -493 280 -579 543 -35 106 -44
223 -32 384 25 313 99 594 226 848 l37 74 -72 -70 c-300 -293 -524 -704 -615
-1130 -37 -173 -48 -287 -48 -475 0 -280 24 -425 87 -519 25 -36 29 -48 16
-41 -29 15 -87 92 -110 143 -48 107 -66 486 -35 724 127 981 876 1759 1855
1929 204 35 452 38 679 8z m2079 -1263 c73 -38 131 -122 166 -240 50 -171 -7
-210 -437 -300 -249 -53 -319 -74 -362 -112 -52 -46 -58 -84 -34 -193 24 -105
21 -182 -10 -272 -48 -135 -120 -186 -263 -185 -46 0 -129 7 -185 15 -191 29
-259 19 -297 -44 -21 -37 -20 -84 5 -182 30 -114 24 -259 -12 -338 -36 -78
-80 -124 -151 -160 -53 -26 -72 -30 -144 -30 -96 0 -152 16 -365 100 -185 74
-258 94 -330 87 -95 -8 -138 -38 -271 -189 -77 -86 -144 -130 -239 -154 -165
-42 -362 28 -486 173 l-44 51 38 -9 c51 -12 168 -11 223 2 82 19 169 68 237
135 65 63 68 65 157 85 50 11 141 33 201 50 l111 30 142 -56 c264 -104 373
-117 502 -59 72 32 151 112 185 186 30 67 49 176 42 239 l-6 48 67 37 c37 21
123 72 192 114 111 69 132 78 190 84 89 10 153 40 200 93 33 38 80 133 80 163
0 5 29 35 65 67 88 78 241 245 336 369 69 90 83 103 116 108 73 13 203 58 248
87 63 40 85 80 85 157 0 34 2 62 5 62 3 0 22 -9 43 -19z m318 -554 c48 -43 94
-111 83 -121 -3 -3 -57 -13 -120 -21 -267 -37 -539 -119 -749 -225 -33 -17
-63 -30 -67 -30 -7 0 -23 74 -40 187 -8 49 12 56 390 138 195 42 292 73 356
113 54 34 67 31 147 -41z m-35 -280 c43 -28 79 -98 79 -152 0 -121 -86 -226
-255 -312 -154 -79 -157 -85 -160 -308 -2 -242 16 -230 -390 -264 -114 -10
-196 -30 -261 -64 -55 -29 -113 -88 -227 -230 -63 -78 -130 -156 -148 -174
-41 -38 -101 -69 -151 -78 l-38 -7 0 48 c0 71 25 174 55 234 59 117 163 199
425 333 334 172 462 249 610 368 228 182 312 323 313 526 1 91 1 92 26 96 61
9 90 6 122 -16z m-21 -648 c0 -51 -6 -74 -41 -141 -190 -378 -673 -780 -1340
-1114 l-146 -73 -7 55 c-3 30 -15 76 -25 103 l-18 49 108 16 c142 22 215 48
305 108 86 58 164 144 264 293 99 148 131 165 330 180 105 8 156 25 232 77 71
48 102 88 118 148 6 25 22 83 35 130 13 47 29 103 35 126 13 55 73 103 128
104 20 0 22 -4 22 -61z m-4872 -126 c13 -19 10 -51 -17 -141 -19 -63 -27 -68
-97 -57 -83 12 -115 67 -100 169 l7 45 67 4 c90 5 125 0 140 -20z m667 -203
c33 -5 103 -13 155 -18 89 -8 99 -11 148 -48 52 -39 52 -39 25 -45 -58 -12
-102 -45 -224 -169 -161 -162 -202 -185 -335 -185 -147 0 -177 31 -148 157 17
74 17 74 84 118 25 16 83 67 130 114 46 48 89 86 95 86 5 0 37 -4 70 -10z
m4015 -249 c-198 -282 -593 -595 -1085 -859 -245 -131 -348 -176 -389 -168
-20 4 -36 10 -36 14 0 4 21 15 48 26 101 40 434 208 567 287 176 103 381 241
510 343 118 93 296 265 367 354 27 34 52 62 54 62 3 0 -13 -27 -36 -59z
m-2173 -41 c217 -73 316 -89 428 -72 96 15 171 47 190 81 l15 26 -7 -30 c-4
-16 -7 -95 -7 -175 1 -162 14 -235 65 -353 34 -79 48 -172 31 -204 -11 -19
-58 -37 -74 -27 -3 2 -1 19 4 38 13 41 -1 126 -22 136 -8 5 -35 16 -59 26 -25
10 -75 47 -113 81 -37 35 -75 63 -84 63 -8 0 -52 -38 -98 -85 -118 -121 -227
-165 -375 -151 -143 13 -245 91 -403 311 l-87 120 32 25 c18 13 81 75 140 136
60 62 118 115 130 118 49 10 122 -6 294 -64z m512 -820 c22 -15 19 -17 -109
-63 -396 -143 -823 -227 -1003 -199 -127 20 -194 77 -184 156 11 81 99 132
214 123 58 -4 86 -14 193 -69 132 -68 201 -88 305 -88 135 0 256 55 382 174
l78 74 50 -47 c28 -25 61 -53 74 -61z m-2260 -247 c147 -119 367 -200 631
-232 109 -14 386 -14 526 0 274 27 624 106 919 208 94 32 178 62 188 66 16 7
17 4 11 -21 -4 -16 -9 -32 -13 -36 -10 -11 -299 -107 -445 -149 -162 -46 -370
-90 -541 -116 -91 -13 -183 -17 -385 -18 -238 0 -277 2 -378 23 -233 47 -402
127 -531 249 -88 84 -76 101 18 26z m2804 -20 c45 -41 -2 -183 -79 -236 -23
-16 -60 -31 -85 -34 l-44 -5 32 21 c30 19 97 100 90 107 -2 2 -19 -1 -38 -6
-80 -23 -149 -6 -216 54 -26 24 -57 58 -67 76 l-19 33 29 -7 c70 -17 147 -18
207 -3 34 9 71 18 82 21 32 7 88 -4 108 -21z"/>
<path d="M4459 5569 c-26 -50 35 -93 75 -53 19 18 20 28 6 55 -15 27 -66 26
-81 -2z"/>
<path d="M4127 5172 c-24 -26 -21 -49 7 -67 46 -31 97 25 60 66 -22 24 -46 24
-67 1z"/>
<path d="M4932 5138 c-22 -22 -14 -67 13 -80 46 -21 86 40 49 76 -18 19 -45
21 -62 4z"/>
<path d="M2962 4758 c-7 -7 -12 -21 -12 -33 0 -12 5 -26 12 -33 7 -7 21 -12
33 -12 12 0 26 5 33 12 7 7 12 21 12 33 0 12 -5 26 -12 33 -7 7 -21 12 -33 12
-12 0 -26 -5 -33 -12z"/>
<path d="M4062 4458 c-7 -7 -12 -21 -12 -33 0 -12 5 -26 12 -33 7 -7 21 -12
33 -12 12 0 26 5 33 12 7 7 12 21 12 33 0 12 -5 26 -12 33 -7 7 -21 12 -33 12
-12 0 -26 -5 -33 -12z"/>
<path d="M2212 4314 c-39 -27 -23 -84 24 -84 46 0 59 60 19 86 -18 12 -24 11
-43 -2z"/>
</g>
</svg>
